<svg width="23" height="20" viewBox="0 0 23 20" fill="none" xmlns="http://www.w3.org/2000/svg">
    <mask id="path-1-inside-1_40000120_9711" fill="white">
        <path
            d="M19.761 3H16.5405L16.1655 1.875C15.9848 1.32875 15.6363 0.853453 15.1697 0.516797C14.7031 0.18014 14.1421 -0.000709479 13.5668 2.09177e-06H8.93325C8.35803 -0.000437447 7.79732 0.18053 7.33088 0.517159C6.86445 0.853788 6.51605 1.32893 6.33525 1.875L5.9595 3H2.739C2.01282 3.0008 1.3166 3.28962 0.803111 3.80311C0.289621 4.3166 0.000794079 5.01282 0 5.739V16.764C0.00158746 17.4897 0.290765 18.1851 0.804169 18.698C1.31757 19.2108 2.01333 19.4992 2.739 19.5H19.764C20.4897 19.4984 21.1851 19.2092 21.698 18.6958C22.2108 18.1824 22.4992 17.4867 22.5 16.761V5.736C22.4984 5.01034 22.2092 4.31489 21.6958 3.80205C21.1824 3.28921 20.4867 3.00079 19.761 3ZM21 16.761C20.9996 17.0895 20.8689 17.4044 20.6367 17.6367C20.4044 17.8689 20.0895 17.9996 19.761 18H2.739C2.41052 17.9996 2.0956 17.8689 1.86333 17.6367C1.63106 17.4044 1.5004 17.0895 1.5 16.761V5.736C1.50119 5.40804 1.6322 5.0939 1.86439 4.86227C2.09658 4.63065 2.41104 4.5004 2.739 4.5H6.50025C6.6576 4.49988 6.81092 4.45028 6.93852 4.35821C7.06612 4.26615 7.16153 4.13629 7.21125 3.987L7.758 2.34675C7.8401 2.10004 7.99783 1.88545 8.20879 1.73346C8.41975 1.58146 8.67323 1.49978 8.93325 1.5H13.5668C13.8269 1.49972 14.0805 1.58147 14.2915 1.73362C14.5025 1.88578 14.6601 2.10059 14.742 2.3475L15.2887 3.987C15.3385 4.13629 15.4339 4.26615 15.5615 4.35821C15.6891 4.45028 15.8424 4.49988 15.9998 4.5H19.761C20.0895 4.5004 20.4044 4.63106 20.6367 4.86334C20.8689 5.09561 20.9996 5.41052 21 5.739V16.761Z" />
        <path
            d="M11.25 5.25C10.1375 5.25 9.04994 5.5799 8.12492 6.19799C7.19989 6.81607 6.47892 7.69457 6.05318 8.72241C5.62744 9.75024 5.51604 10.8812 5.73308 11.9724C5.95013 13.0635 6.48585 14.0658 7.27252 14.8525C8.0592 15.6391 9.06147 16.1749 10.1526 16.3919C11.2438 16.609 12.3748 16.4976 13.4026 16.0718C14.4304 15.6461 15.3089 14.9251 15.927 14.0001C16.5451 13.0751 16.875 11.9875 16.875 10.875C16.8734 9.38365 16.2803 7.95383 15.2257 6.89928C14.1712 5.84473 12.7414 5.25159 11.25 5.25ZM11.25 15C10.4342 15 9.63663 14.7581 8.95827 14.3048C8.27992 13.8516 7.75121 13.2073 7.439 12.4536C7.12679 11.6998 7.0451 10.8704 7.20426 10.0703C7.36343 9.27008 7.75629 8.53508 8.33319 7.95819C8.91008 7.38129 9.64508 6.98843 10.4453 6.82926C11.2454 6.6701 12.0748 6.75179 12.8286 7.064C13.5823 7.37621 14.2266 7.90492 14.6798 8.58327C15.1331 9.26163 15.375 10.0592 15.375 10.875C15.3738 11.9687 14.9388 13.0172 14.1655 13.7905C13.3922 14.5638 12.3437 14.9988 11.25 15Z" />
        <path
            d="M19 8C19.5523 8 20 7.55229 20 7C20 6.44772 19.5523 6 19 6C18.4477 6 18 6.44772 18 7C18 7.55229 18.4477 8 19 8Z" />
    </mask>
    <path
        d="M19.761 3H16.5405L16.1655 1.875C15.9848 1.32875 15.6363 0.853453 15.1697 0.516797C14.7031 0.18014 14.1421 -0.000709479 13.5668 2.09177e-06H8.93325C8.35803 -0.000437447 7.79732 0.18053 7.33088 0.517159C6.86445 0.853788 6.51605 1.32893 6.33525 1.875L5.9595 3H2.739C2.01282 3.0008 1.3166 3.28962 0.803111 3.80311C0.289621 4.3166 0.000794079 5.01282 0 5.739V16.764C0.00158746 17.4897 0.290765 18.1851 0.804169 18.698C1.31757 19.2108 2.01333 19.4992 2.739 19.5H19.764C20.4897 19.4984 21.1851 19.2092 21.698 18.6958C22.2108 18.1824 22.4992 17.4867 22.5 16.761V5.736C22.4984 5.01034 22.2092 4.31489 21.6958 3.80205C21.1824 3.28921 20.4867 3.00079 19.761 3ZM21 16.761C20.9996 17.0895 20.8689 17.4044 20.6367 17.6367C20.4044 17.8689 20.0895 17.9996 19.761 18H2.739C2.41052 17.9996 2.0956 17.8689 1.86333 17.6367C1.63106 17.4044 1.5004 17.0895 1.5 16.761V5.736C1.50119 5.40804 1.6322 5.0939 1.86439 4.86227C2.09658 4.63065 2.41104 4.5004 2.739 4.5H6.50025C6.6576 4.49988 6.81092 4.45028 6.93852 4.35821C7.06612 4.26615 7.16153 4.13629 7.21125 3.987L7.758 2.34675C7.8401 2.10004 7.99783 1.88545 8.20879 1.73346C8.41975 1.58146 8.67323 1.49978 8.93325 1.5H13.5668C13.8269 1.49972 14.0805 1.58147 14.2915 1.73362C14.5025 1.88578 14.6601 2.10059 14.742 2.3475L15.2887 3.987C15.3385 4.13629 15.4339 4.26615 15.5615 4.35821C15.6891 4.45028 15.8424 4.49988 15.9998 4.5H19.761C20.0895 4.5004 20.4044 4.63106 20.6367 4.86334C20.8689 5.09561 20.9996 5.41052 21 5.739V16.761Z"
        fill="#DDD7CD" />
    <path
        d="M11.25 5.25C10.1375 5.25 9.04994 5.5799 8.12492 6.19799C7.19989 6.81607 6.47892 7.69457 6.05318 8.72241C5.62744 9.75024 5.51604 10.8812 5.73308 11.9724C5.95013 13.0635 6.48585 14.0658 7.27252 14.8525C8.0592 15.6391 9.06147 16.1749 10.1526 16.3919C11.2438 16.609 12.3748 16.4976 13.4026 16.0718C14.4304 15.6461 15.3089 14.9251 15.927 14.0001C16.5451 13.0751 16.875 11.9875 16.875 10.875C16.8734 9.38365 16.2803 7.95383 15.2257 6.89928C14.1712 5.84473 12.7414 5.25159 11.25 5.25ZM11.25 15C10.4342 15 9.63663 14.7581 8.95827 14.3048C8.27992 13.8516 7.75121 13.2073 7.439 12.4536C7.12679 11.6998 7.0451 10.8704 7.20426 10.0703C7.36343 9.27008 7.75629 8.53508 8.33319 7.95819C8.91008 7.38129 9.64508 6.98843 10.4453 6.82926C11.2454 6.6701 12.0748 6.75179 12.8286 7.064C13.5823 7.37621 14.2266 7.90492 14.6798 8.58327C15.1331 9.26163 15.375 10.0592 15.375 10.875C15.3738 11.9687 14.9388 13.0172 14.1655 13.7905C13.3922 14.5638 12.3437 14.9988 11.25 15Z"
        fill="#DDD7CD" />
    <path
        d="M19 8C19.5523 8 20 7.55229 20 7C20 6.44772 19.5523 6 19 6C18.4477 6 18 6.44772 18 7C18 7.55229 18.4477 8 19 8Z"
        fill="#DDD7CD" />
    <path
        d="M19.761 3L19.7785 -13L19.7697 -13H19.761V3ZM16.5405 3L1.36157 8.05965L5.00835 19H16.5405V3ZM16.1655 1.875L0.975411 6.90105L0.980971 6.91786L0.986568 6.93465L16.1655 1.875ZM13.5668 2.09177e-06V16H13.5766L13.5865 16L13.5668 2.09177e-06ZM8.93325 2.09177e-06L8.92102 16H8.93325V2.09177e-06ZM6.33525 1.875L21.5111 6.94375L21.5178 6.92392L21.5243 6.90407L6.33525 1.875ZM5.9595 3V19H17.4844L21.1354 8.06875L5.9595 3ZM2.739 3V-13H2.73025L2.7215 -13L2.739 3ZM0 5.739L-16 5.72151L-16 5.73025V5.739H0ZM0 16.764H-16V16.7815L-16 16.799L0 16.764ZM2.739 19.5L2.72153 35.5L2.73027 35.5H2.739V19.5ZM19.764 19.5V35.5H19.7815L19.799 35.5L19.764 19.5ZM22.5 16.761L38.5 16.7785L38.5 16.7697V16.761H22.5ZM22.5 5.736H38.5V5.7185L38.5 5.701L22.5 5.736ZM21 16.761L37 16.7803L37 16.7707V16.761H21ZM19.761 18V34H19.7707L19.7803 34L19.761 18ZM2.739 18L2.71966 34L2.72933 34H2.739V18ZM1.5 16.761H-14.5V16.7707L-14.5 16.7803L1.5 16.761ZM1.5 5.736L-14.4999 5.67797L-14.5 5.70699V5.736H1.5ZM2.739 4.5V-11.5H2.72938L2.71976 -11.5L2.739 4.5ZM6.50025 4.5V20.5L6.5124 20.5L6.50025 4.5ZM7.21125 3.987L-7.96768 -1.07264L-7.9689 -1.06899L7.21125 3.987ZM7.758 2.34675L22.9369 7.4064L22.9394 7.39887L7.758 2.34675ZM8.93325 1.5L8.91954 17.5H8.93325V1.5ZM13.5668 1.5V17.5H13.5755L13.5842 17.5L13.5668 1.5ZM14.742 2.3475L-0.444869 7.38327L-0.440566 7.39625L-0.43624 7.40922L14.742 2.3475ZM15.2887 3.987L30.4689 -1.06899L30.467 -1.07472L15.2887 3.987ZM15.9998 4.5L15.9876 20.5H15.9998V4.5ZM19.761 4.5L19.7803 -11.5L19.7707 -11.5H19.761V4.5ZM21 5.739H37V5.72933L37 5.71967L21 5.739ZM11.25 5.25L11.267 -10.75L11.2585 -10.75H11.25V5.25ZM16.875 10.875H32.875V10.8665L32.875 10.858L16.875 10.875ZM11.25 15V31H11.2587L11.2674 31L11.25 15ZM15.375 10.875L31.375 10.8924L31.375 10.8837V10.875H15.375ZM19.761 3V-13H16.5405V3V19H19.761V3ZM16.5405 3L31.7194 -2.05964L31.3444 -3.18464L16.1655 1.875L0.986568 6.93465L1.36157 8.05965L16.5405 3ZM16.1655 1.875L31.3556 -3.15105C30.117 -6.89439 27.7289 -10.1515 24.5314 -12.4585L15.1697 0.516797L5.80797 13.4921C3.54365 11.8584 1.85251 9.55189 0.975411 6.90105L16.1655 1.875ZM15.1697 0.516797L24.5314 -12.4585C21.3338 -14.7655 17.4899 -16.0049 13.547 -16L13.5668 2.09177e-06L13.5865 16C10.7944 16.0034 8.0723 15.1258 5.80797 13.4921L15.1697 0.516797ZM13.5668 2.09177e-06V-16H8.93325V2.09177e-06V16H13.5668V2.09177e-06ZM8.93325 2.09177e-06L8.94548 -16C5.00455 -16.003 1.16303 -14.7632 -2.03259 -12.4569L7.33088 0.517159L16.6944 13.4912C14.4316 15.1242 11.7115 16.0021 8.92102 16L8.93325 2.09177e-06ZM7.33088 0.517159L-2.03259 -12.4569C-5.22821 -10.1506 -7.61514 -6.89526 -8.85384 -3.15407L6.33525 1.875L21.5243 6.90407C20.6472 9.55313 18.9571 11.8581 16.6944 13.4912L7.33088 0.517159ZM6.33525 1.875L-8.84065 -3.19374L-9.2164 -2.06874L5.9595 3L21.1354 8.06875L21.5111 6.94375L6.33525 1.875ZM5.9595 3V-13H2.739V3V19H5.9595V3ZM2.739 3L2.7215 -13C-2.24208 -12.9946 -7.00081 -11.0204 -10.5106 -7.51059L0.803111 3.80311L12.1168 15.1168C9.63401 17.5996 6.26771 18.9962 2.7565 19L2.739 3ZM0.803111 3.80311L-10.5106 -7.51059C-14.0204 -4.00081 -15.9946 0.757926 -16 5.72151L0 5.739L16 5.7565C15.9962 9.26771 14.5996 12.634 12.1168 15.1168L0.803111 3.80311ZM0 5.739H-16V16.764H0H16V5.739H0ZM0 16.764L-16 16.799C-15.9891 21.759 -14.0125 26.5125 -10.5033 30.0179L0.804169 18.698L12.1117 7.37805C14.5941 9.85773 15.9923 13.2203 16 16.729L0 16.764ZM0.804169 18.698L-10.5033 30.0179C-6.99414 33.5232 -2.23851 35.4946 2.72153 35.5L2.739 19.5L2.75647 3.50001C6.26518 3.50384 9.62929 4.89838 12.1117 7.37805L0.804169 18.698ZM2.739 19.5V35.5H19.764V19.5V3.5H2.739V19.5ZM19.764 19.5L19.799 35.5C24.759 35.4891 29.5125 33.5125 33.0179 30.0033L21.698 18.6958L10.378 7.38832C12.8577 4.90595 16.2203 3.50772 19.729 3.50004L19.764 19.5ZM21.698 18.6958L33.0179 30.0033C36.5232 26.4941 38.4946 21.7385 38.5 16.7785L22.5 16.761L6.50001 16.7435C6.50384 13.2348 7.89838 9.87071 10.378 7.38832L21.698 18.6958ZM22.5 16.761H38.5V5.736H22.5H6.5V16.761H22.5ZM22.5 5.736L38.5 5.701C38.4891 0.740983 36.5125 -4.01249 33.0033 -7.51785L21.6958 3.80205L10.3883 15.122C7.90593 12.6423 6.50771 9.27969 6.50004 5.771L22.5 5.736ZM21.6958 3.80205L33.0033 -7.51785C29.4941 -11.0232 24.7385 -12.9946 19.7785 -13L19.761 3L19.7435 19C16.2348 18.9962 12.8707 17.6016 10.3883 15.122L21.6958 3.80205ZM21 16.761L5.00001 16.7417C5.00473 12.8334 6.55937 9.08655 9.32296 6.32296L20.6367 17.6367L31.9504 28.9504C35.1785 25.7222 36.9945 21.3456 37 16.7803L21 16.761ZM20.6367 17.6367L9.32296 6.32296C12.0865 3.55937 15.8334 2.00474 19.7417 2.00001L19.761 18L19.7803 34C24.3456 33.9945 28.7222 32.1785 31.9504 28.9504L20.6367 17.6367ZM19.761 18V2H2.739V18V34H19.761V18ZM2.739 18L2.75834 2.00001C6.6666 2.00474 10.4135 3.55938 13.177 6.32296L1.86333 17.6367L-9.45038 28.9504C-6.22225 32.1785 -1.84557 33.9945 2.71966 34L2.739 18ZM1.86333 17.6367L13.177 6.32296C15.9406 9.08654 17.4953 12.8334 17.5 16.7417L1.5 16.761L-14.5 16.7803C-14.4945 21.3456 -12.6785 25.7223 -9.45038 28.9504L1.86333 17.6367ZM1.5 16.761H17.5V5.736H1.5H-14.5V16.761H1.5ZM1.5 5.736L17.4999 5.79403C17.4857 9.69612 15.9269 13.4338 13.1644 16.1897L1.86439 4.86227L-9.4356 -6.46514C-12.6625 -3.24603 -14.4834 1.11996 -14.4999 5.67797L1.5 5.736ZM1.86439 4.86227L13.1644 16.1897C10.4018 18.9455 6.66036 20.4953 2.75824 20.5L2.739 4.5L2.71976 -11.5C-1.83829 -11.4945 -6.20868 -9.68425 -9.4356 -6.46514L1.86439 4.86227ZM2.739 4.5V20.5H6.50025V4.5V-11.5H2.739V4.5ZM6.50025 4.5L6.5124 20.5C10.0264 20.4973 13.4506 19.3895 16.3004 17.3334L6.93852 4.35821L-2.42333 -8.61698C0.171202 -10.489 3.28877 -11.4976 6.4881 -11.5L6.50025 4.5ZM6.93852 4.35821L16.3004 17.3334C19.1501 15.2773 21.281 12.377 22.3914 9.043L7.21125 3.987L-7.9689 -1.06899C-6.9579 -4.10441 -5.01785 -6.74499 -2.42333 -8.61698L6.93852 4.35821ZM7.21125 3.987L22.3902 9.04665L22.9369 7.4064L7.758 2.34675L-7.42093 -2.71289L-7.96768 -1.07264L7.21125 3.987ZM7.758 2.34675L22.9394 7.39887C21.96 10.342 20.0785 12.9018 17.5618 14.715L8.20879 1.73346L-1.14423 -11.2481C-4.0828 -9.13091 -6.27982 -6.1419 -7.42344 -2.70536L7.758 2.34675ZM8.20879 1.73346L17.5618 14.715C15.0452 16.5282 12.0213 17.5027 8.91954 17.5L8.93325 1.5L8.94696 -14.5C5.32514 -14.5031 1.79435 -13.3653 -1.14423 -11.2481L8.20879 1.73346ZM8.93325 1.5V17.5H13.5668V1.5V-14.5H8.93325V1.5ZM13.5668 1.5L13.5842 17.5C10.479 17.5034 7.4517 16.5275 4.93301 14.7113L14.2915 1.73362L23.65 -11.244C20.7093 -13.3646 17.1748 -14.504 13.5493 -14.5L13.5668 1.5ZM14.2915 1.73362L4.93301 14.7113C2.41434 12.895 0.532477 10.3308 -0.444869 7.38327L14.742 2.3475L29.9289 -2.68827C28.7878 -6.12958 26.5906 -9.12343 23.65 -11.244L14.2915 1.73362ZM14.742 2.3475L-0.43624 7.40922L0.110509 9.04872L15.2887 3.987L30.467 -1.07472L29.9202 -2.71422L14.742 2.3475ZM15.2887 3.987L0.108601 9.043C1.21906 12.377 3.34996 15.2773 6.19963 17.3334L15.5615 4.35821L24.9233 -8.61698C27.5178 -6.74502 29.4579 -4.10446 30.4689 -1.06899L15.2887 3.987ZM15.5615 4.35821L6.19963 17.3334C9.04936 19.3895 12.4736 20.4973 15.9876 20.5L15.9998 4.5L16.0119 -11.5C19.2112 -11.4976 22.3288 -10.489 24.9233 -8.61698L15.5615 4.35821ZM15.9998 4.5V20.5H19.761V4.5V-11.5H15.9998V4.5ZM19.761 4.5L19.7417 20.5C15.8334 20.4953 12.0865 18.9406 9.32296 16.177L20.6367 4.86334L31.9504 -6.45037C28.7223 -9.67848 24.3456 -11.4945 19.7803 -11.5L19.761 4.5ZM20.6367 4.86334L9.32296 16.177C6.55938 13.4135 5.00473 9.66661 5.00001 5.75834L21 5.739L37 5.71967C36.9945 1.15443 35.1785 -3.22225 31.9504 -6.45037L20.6367 4.86334ZM21 5.739H5V16.761H21H37V5.739H21ZM11.25 5.25V-10.75C6.97297 -10.75 2.792 -9.48171 -0.764206 -7.10553L8.12492 6.19799L17.014 19.5015C15.3079 20.6415 13.302 21.25 11.25 21.25V5.25ZM8.12492 6.19799L-0.764206 -7.10553C-4.32042 -4.72934 -7.09215 -1.35198 -8.72889 2.59947L6.05318 8.72241L20.8353 14.8453C20.05 16.7411 18.7202 18.3615 17.014 19.5015L8.12492 6.19799ZM6.05318 8.72241L-8.72889 2.59947C-10.3656 6.55092 -10.7939 10.899 -9.95948 15.0938L5.73308 11.9724L21.4256 8.85094C21.826 10.8635 21.6205 12.9496 20.8353 14.8453L6.05318 8.72241ZM5.73308 11.9724L-9.95948 15.0938C-9.12508 19.2887 -7.0655 23.1419 -4.04118 26.1662L7.27252 14.8525L18.5862 3.53877C20.0372 4.98974 21.0253 6.83839 21.4256 8.85094L5.73308 11.9724ZM7.27252 14.8525L-4.04118 26.1662C-1.01688 29.1905 2.83632 31.2501 7.03117 32.0845L10.1526 16.3919L13.2741 0.699356C15.2866 1.09968 17.1353 2.08781 18.5862 3.53877L7.27252 14.8525ZM10.1526 16.3919L7.03117 32.0845C11.226 32.9189 15.5741 32.4906 19.5255 30.8539L13.4026 16.0718L7.27966 1.28975C9.17544 0.504494 11.2615 0.299033 13.2741 0.699356L10.1526 16.3919ZM13.4026 16.0718L19.5255 30.8539C23.477 29.2172 26.8543 26.4454 29.2305 22.8892L15.927 14.0001L2.6235 5.11096C3.76352 3.4048 5.38387 2.07501 7.27966 1.28975L13.4026 16.0718ZM15.927 14.0001L29.2305 22.8892C31.6067 19.333 32.875 15.152 32.875 10.875H16.875H0.875C0.875 8.82303 1.48348 6.81712 2.6235 5.11096L15.927 14.0001ZM16.875 10.875L32.875 10.858C32.8689 5.12905 30.5904 -0.363469 26.5394 -4.41443L15.2257 6.89928L3.91201 18.213C1.97015 16.2711 0.877934 13.6382 0.875009 10.892L16.875 10.875ZM15.2257 6.89928L26.5394 -4.41443C22.4885 -8.46538 16.996 -10.7439 11.267 -10.75L11.25 5.25L11.233 21.25C8.48676 21.2471 5.85387 20.1548 3.91201 18.213L15.2257 6.89928ZM11.25 15V-0.999998C13.5987 -0.999998 15.8946 -0.303537 17.8474 1.0013L8.95827 14.3048L0.0691486 27.6083C3.37868 29.8197 7.26964 31 11.25 31V15ZM8.95827 14.3048L17.8474 1.0013C19.8002 2.30614 21.3223 4.16076 22.2211 6.33064L7.439 12.4536L-7.34307 18.5765C-5.81986 22.2539 -3.24039 25.397 0.0691486 27.6083L8.95827 14.3048ZM7.439 12.4536L22.2211 6.33064C23.1199 8.50051 23.355 10.8882 22.8968 13.1917L7.20426 10.0703L-8.4883 6.94881C-9.26483 10.8527 -8.86629 14.8991 -7.34307 18.5765L7.439 12.4536ZM7.20426 10.0703L22.8968 13.1917C22.4386 15.4952 21.3076 17.6111 19.6469 19.2719L8.33319 7.95819L-2.98052 -3.35552C-5.79506 -0.540985 -7.71178 3.04495 -8.4883 6.94881L7.20426 10.0703ZM8.33319 7.95819L19.6469 19.2719C17.9861 20.9326 15.8702 22.0636 13.5667 22.5218L10.4453 6.82926L7.32381 -8.8633C3.41995 -8.08677 -0.165987 -6.17006 -2.98052 -3.35552L8.33319 7.95819ZM10.4453 6.82926L13.5667 22.5218C11.2632 22.98 8.87551 22.7449 6.70563 21.8461L12.8286 7.064L18.9515 -7.71807C15.2741 -9.24129 11.2277 -9.63983 7.32381 -8.8633L10.4453 6.82926ZM12.8286 7.064L6.70563 21.8461C4.53576 20.9473 2.68114 19.4252 1.3763 17.4724L14.6798 8.58327L27.9833 -0.30585C25.772 -3.61538 22.6289 -6.19486 18.9515 -7.71807L12.8286 7.064ZM14.6798 8.58327L1.3763 17.4724C0.071461 15.5196 -0.625 13.2237 -0.625 10.875H15.375H31.375C31.375 6.89464 30.1947 3.00368 27.9833 -0.30585L14.6798 8.58327ZM15.375 10.875L-0.624991 10.8576C-0.621567 7.7138 0.62881 4.69977 2.85179 2.47679L14.1655 13.7905L25.4792 25.1042C29.2488 21.3346 31.3692 16.2235 31.375 10.8924L15.375 10.875ZM14.1655 13.7905L2.85179 2.47679C5.07477 0.253812 8.0888 -0.996565 11.2326 -0.999989L11.25 15L11.2674 31C16.5985 30.9942 21.7096 28.8738 25.4792 25.1042L14.1655 13.7905ZM20 7H4C4 -1.28427 10.7157 -8 19 -8V8V24C28.3888 24 36 16.3888 36 7H20ZM19 8V-8C27.2843 -8 34 -1.28427 34 7H18H2C2 16.3888 9.61116 24 19 24V8ZM18 7H34C34 15.2843 27.2843 22 19 22V6V-10C9.61116 -10 2 -2.38884 2 7H18ZM19 6V22C10.7157 22 4 15.2843 4 7H20H36C36 -2.38884 28.3888 -10 19 -10V6Z"
        fill="#ECE7DC" mask="url(#path-1-inside-1_40000120_9711)" />
</svg>
    